<svg width="146" height="27" viewBox="0 0 146 27" fill="none" xmlns="http://www.w3.org/2000/svg">
<path d="M141.275 6.21874C139.081 6.21874 137.281 4.95207 137.281 3.40831C137.281 1.86456 139.081 0.5979 141.275 0.5979C143.525 0.5979 145.269 1.86456 145.269 3.40831C145.269 4.95207 143.525 6.21874 141.275 6.21874Z" fill="white"/>
<path d="M117.312 6.21874C115.119 6.21874 113.319 4.95207 113.319 3.40831C113.319 1.86456 115.119 0.5979 117.312 0.5979C119.506 0.5979 121.306 1.86456 121.306 3.40831C121.306 4.95207 119.506 6.21874 117.312 6.21874Z" fill="white"/>
<path d="M93.3495 6.21874C91.1557 6.21874 89.3557 4.95207 89.3557 3.40831C89.3557 1.86456 91.1557 0.5979 93.3495 0.5979C95.5432 0.5979 97.3432 1.86456 97.3432 3.40831C97.3432 4.95207 95.5432 6.21874 93.3495 6.21874Z" fill="white"/>
<path d="M69.3881 6.21874C67.1944 6.21874 65.3944 4.95207 65.3944 3.40831C65.3944 1.86456 67.1944 0.5979 69.3881 0.5979C71.5819 0.5979 73.3819 1.86456 73.3819 3.40831C73.3819 4.95207 71.5819 6.21874 69.3881 6.21874Z" fill="white"/>
<path d="M45.4255 6.21874C43.2318 6.21874 41.4318 4.95207 41.4318 3.40831C41.4318 1.86456 43.2318 0.5979 45.4255 0.5979C47.6193 0.5979 49.4193 1.86456 49.4193 3.40831C49.4193 4.95207 47.6193 6.21874 45.4255 6.21874Z" fill="white"/>
<path d="M21.4626 6.21874C19.2688 6.21874 17.4688 4.95207 17.4688 3.40831C17.4688 1.86456 19.2688 0.5979 21.4626 0.5979C23.6563 0.5979 25.4563 1.86456 25.4563 3.40831C25.4563 4.95207 23.6563 6.21874 21.4626 6.21874Z" fill="white"/>
<path d="M124.119 26.8396C121.925 26.8396 120.125 25.5729 120.125 24.0292C120.125 22.4458 121.925 21.2188 124.119 21.2188C126.313 21.2188 128.113 22.4458 128.113 24.0292C128.113 25.5729 126.313 26.8396 124.119 26.8396Z" fill="white"/>
<path d="M100.156 26.8396C97.9622 26.8396 96.1622 25.5729 96.1622 24.0292C96.1622 22.4458 97.9622 21.2188 100.156 21.2188C102.35 21.2188 104.15 22.4458 104.15 24.0292C104.15 25.5729 102.35 26.8396 100.156 26.8396Z" fill="white"/>
<path d="M76.1933 26.8396C73.9995 26.8396 72.1995 25.5729 72.1995 24.0292C72.1995 22.4458 73.9995 21.2188 76.1933 21.2188C78.387 21.2188 80.187 22.4458 80.187 24.0292C80.187 25.5729 78.387 26.8396 76.1933 26.8396Z" fill="white"/>
<path d="M52.2317 26.8396C50.0379 26.8396 48.2379 25.5729 48.2379 24.0292C48.2379 22.4458 50.0379 21.2188 52.2317 21.2188C54.4254 21.2188 56.2254 22.4458 56.2254 24.0292C56.2254 25.5729 54.4254 26.8396 52.2317 26.8396Z" fill="white"/>
<path d="M28.2691 26.8396C26.0753 26.8396 24.2753 25.5729 24.2753 24.0292C24.2753 22.4458 26.0753 21.2188 28.2691 21.2188C30.4628 21.2188 32.2628 22.4458 32.2628 24.0292C32.2628 25.5729 30.4628 26.8396 28.2691 26.8396Z" fill="white"/>
<path d="M4.30625 26.8396C2.05625 26.8396 0.3125 25.5729 0.3125 24.0292C0.3125 22.4458 2.05625 21.2188 4.30625 21.2188C6.5 21.2188 8.3 22.4458 8.3 24.0292C8.3 25.5729 6.5 26.8396 4.30625 26.8396Z" fill="white"/>
</svg>
